<svg xmlns="http://www.w3.org/2000/svg" width="22" height="22" viewBox="0 0 22 22">
    <path fill="#F8992E" fill-rule="evenodd" d="M3.46 13.13c.502 3.908 4.023 6.946 8.278 6.946 4.598 0 8.338-3.74 8.338-8.339 0-4.177-3.093-7.756-6.947-8.274v8.704c0 .532-.43.962-.961.962H3.46zM11.738 22c-5.659 0-10.263-4.411-10.263-9.833 0-.53.431-.961.962-.961h8.769V2.437c0-.531.43-.962.962-.962 5.33 0 9.832 4.7 9.832 10.262C22 17.397 17.396 22 11.738 22zm-10-14.795h5.467V1.738c-2.837.377-5.09 2.63-5.467 5.467zm6.308 1.683H.841C.377 8.888 0 8.51 0 8.046 0 3.61 3.61 0 8.046 0c.465 0 .842.377.842.841v7.205c0 .465-.377.842-.842.842z"/>
</svg>
