<svg xmlns="http://www.w3.org/2000/svg" width="26" height="20" viewBox="0 0 26 20">
    <path fill="#FAA823" fill-rule="evenodd" d="M21.193 8.733c0-1.25-1.018-2.266-2.27-2.266-.306 0-.604.06-.883.178-.437.185-.94-.02-1.123-.456-.185-.436.02-.938.455-1.123.492-.208 1.014-.313 1.552-.313 2.196 0 3.983 1.785 3.983 3.98 0 2.195-1.787 3.98-3.983 3.98-1.14 0-2.228-.49-2.985-1.343-.313-.355-.28-.897.074-1.21.354-.314.896-.281 1.21.073.431.487 1.051.766 1.7.766 1.252 0 2.27-1.016 2.27-2.266zM26 16.297c0 .474-.384.846-.857.846h-3.82c-.473 0-.856-.384-.856-.857 0-.474.383-.857.857-.857h2.544c-.415-.572-1.11-1.023-1.962-1.49-.415-.229-.566-.738-.338-1.153.227-.415.749-.566 1.164-.338 1.22.67 3.268 2.053 3.268 3.85zm-22.786.846c.97-.73 2.594-1.553 4.36-2.163l1.952 1.185c.365.22.822.22 1.186 0l1.953-1.185c1.766.61 3.39 1.434 4.36 2.163H3.214zm9.655-4.503c-.314-.1-.656-.059-.938.112l-1.812 1.099-1.812-1.099c-.282-.17-.624-.211-.938-.112C5.641 13.188 0 15.216 0 18.286c0 .63.512 1.143 1.143 1.143h17.952c.632 0 1.143-.512 1.143-1.143 0-3.07-5.64-5.098-7.37-5.646zm-2.75-10.354c2.072 0 3.757 1.683 3.757 3.752 0 2.07-1.685 3.753-3.757 3.753S6.362 8.108 6.362 6.038c0-2.069 1.685-3.752 3.757-3.752zm0 9.79c3.332 0 6.043-2.708 6.043-6.038S13.452 0 10.119 0C6.787 0 4.076 2.709 4.076 6.038c0 3.33 2.71 6.039 6.043 6.039z"/>
</svg>
